<?xml version="1.0" standalone="no"?>
<!DOCTYPE svg PUBLIC "-//W3C//DTD SVG 20010904//EN"
 "http://www.w3.org/TR/2001/REC-SVG-20010904/DTD/svg10.dtd">
<svg version="1.0" xmlns="http://www.w3.org/2000/svg"
 width="64.000000pt" height="64.000000pt" viewBox="0 0 64.000000 64.000000"
 preserveAspectRatio="xMidYMid meet">

<g transform="translate(0.000000,64.000000) scale(0.100000,-0.100000)"
fill="#000000" stroke="none">
<path d="M17 482 c-14 -16 -17 -43 -17 -164 0 -128 2 -147 18 -161 16 -15 47
-17 225 -17 201 0 206 0 221 22 9 12 16 32 16 45 l0 22 57 -20 c68 -23 68 -23
87 -3 23 22 23 206 0 228 -19 20 -19 20 -87 -3 l-57 -20 0 22 c0 13 -7 33 -16
45 -15 22 -20 22 -223 22 -189 0 -209 -2 -224 -18z m414 -12 c17 -10 19 -22
19 -148 0 -94 -4 -142 -12 -150 -17 -17 -379 -17 -396 0 -8 8 -12 56 -12 150
0 120 2 138 18 147 23 14 357 14 383 1z m179 -151 l0 -101 -27 5 c-16 3 -45
13 -65 21 -38 16 -38 17 -38 75 l0 60 53 20 c28 11 58 20 65 20 9 1 12 -26 12
-100z"/>
</g>
</svg>
